<svg width="91" height="20" viewBox="0 0 91 20" fill="none" xmlns="http://www.w3.org/2000/svg">
<path d="M10.9854 13.4083L14.2268 17.0936C15.4277 18.4589 16.0282 19.1416 16.6567 18.9754C17.2852 18.8092 17.5008 17.9108 17.9318 16.1138L20.3229 6.1459C20.9868 3.37832 21.3187 1.99454 20.5808 1.312C19.843 0.629468 18.564 1.13725 16.0061 2.15282L4.13876 6.86449C2.09293 7.67674 1.07001 8.0829 1.00507 8.7808C0.998421 8.8522 0.998311 8.9241 1.00474 8.9955C1.06754 9.6937 2.08921 10.1033 4.13255 10.9223C5.05838 11.2934 5.5213 11.479 5.8532 11.8344C5.89052 11.8743 5.9264 11.9157 5.96078 11.9584C6.26658 12.3384 6.39709 12.8371 6.65808 13.8344L7.14653 15.701C7.4005 16.6715 7.52749 17.1568 7.86008 17.223C8.19267 17.2891 8.48225 16.8867 9.0614 16.0819L10.9854 13.4083ZM10.9854 13.4083L10.6676 13.0771C10.3059 12.7001 10.1251 12.5117 10.1251 12.2775C10.1251 12.0433 10.3059 11.8548 10.6676 11.4778L14.2406 7.75409" stroke="#2D6A4F" stroke-width="1.5" stroke-linecap="round" stroke-linejoin="round"/>
<path d="M24.88 14.06C24.36 14.06 23.868 13.988 23.404 13.844C22.94 13.692 22.576 13.504 22.312 13.28L22.696 12.608C22.952 12.8 23.28 12.968 23.68 13.112C24.08 13.248 24.5 13.316 24.94 13.316C25.54 13.316 25.972 13.224 26.236 13.04C26.5 12.848 26.632 12.596 26.632 12.284C26.632 12.052 26.556 11.872 26.404 11.744C26.26 11.608 26.068 11.508 25.828 11.444C25.588 11.372 25.32 11.312 25.024 11.264C24.728 11.216 24.432 11.16 24.136 11.096C23.848 11.032 23.584 10.94 23.344 10.82C23.104 10.692 22.908 10.52 22.756 10.304C22.612 10.088 22.54 9.8 22.54 9.44C22.54 9.096 22.636 8.788 22.828 8.516C23.02 8.244 23.3 8.032 23.668 7.88C24.044 7.72 24.5 7.64 25.036 7.64C25.444 7.64 25.852 7.696 26.26 7.808C26.668 7.912 27.004 8.052 27.268 8.228L26.896 8.912C26.616 8.72 26.316 8.584 25.996 8.504C25.676 8.416 25.356 8.372 25.036 8.372C24.468 8.372 24.048 8.472 23.776 8.672C23.512 8.864 23.38 9.112 23.38 9.416C23.38 9.656 23.452 9.844 23.596 9.98C23.748 10.116 23.944 10.224 24.184 10.304C24.432 10.376 24.7 10.436 24.988 10.484C25.284 10.532 25.576 10.592 25.864 10.664C26.16 10.728 26.428 10.82 26.668 10.94C26.916 11.052 27.112 11.216 27.256 11.432C27.408 11.64 27.484 11.916 27.484 12.26C27.484 12.628 27.38 12.948 27.172 13.22C26.972 13.484 26.676 13.692 26.284 13.844C25.9 13.988 25.432 14.06 24.88 14.06ZM36.9194 7.64C37.4314 7.64 37.8754 7.74 38.2514 7.94C38.6354 8.132 38.9314 8.428 39.1394 8.828C39.3554 9.228 39.4634 9.732 39.4634 10.34V14H38.6114V10.424C38.6114 9.76 38.4514 9.26 38.1314 8.924C37.8194 8.58 37.3754 8.408 36.7994 8.408C36.3674 8.408 35.9914 8.5 35.6714 8.684C35.3594 8.86 35.1154 9.12 34.9394 9.464C34.7714 9.8 34.6874 10.208 34.6874 10.688V14H33.8354V10.424C33.8354 9.76 33.6754 9.26 33.3554 8.924C33.0354 8.58 32.5874 8.408 32.0114 8.408C31.5874 8.408 31.2154 8.5 30.8954 8.684C30.5754 8.86 30.3274 9.12 30.1514 9.464C29.9834 9.8 29.8994 10.208 29.8994 10.688V14H29.0474V7.7H29.8634V9.404L29.7314 9.104C29.9234 8.648 30.2314 8.292 30.6554 8.036C31.0874 7.772 31.5954 7.64 32.1794 7.64C32.7954 7.64 33.3194 7.796 33.7514 8.108C34.1834 8.412 34.4634 8.872 34.5914 9.488L34.2554 9.356C34.4394 8.844 34.7634 8.432 35.2274 8.12C35.6994 7.8 36.2634 7.64 36.9194 7.64ZM44.4499 14.06C43.7939 14.06 43.2179 13.924 42.7219 13.652C42.2259 13.372 41.8379 12.992 41.5579 12.512C41.2779 12.024 41.1379 11.468 41.1379 10.844C41.1379 10.22 41.2699 9.668 41.5339 9.188C41.8059 8.708 42.1739 8.332 42.6379 8.06C43.1099 7.78 43.6379 7.64 44.2219 7.64C44.8139 7.64 45.3379 7.776 45.7939 8.048C46.2579 8.312 46.6219 8.688 46.8859 9.176C47.1499 9.656 47.2819 10.212 47.2819 10.844C47.2819 10.884 47.2779 10.928 47.2699 10.976C47.2699 11.016 47.2699 11.06 47.2699 11.108H41.7859V10.472H46.8139L46.4779 10.724C46.4779 10.268 46.3779 9.864 46.1779 9.512C45.9859 9.152 45.7219 8.872 45.3859 8.672C45.0499 8.472 44.6619 8.372 44.2219 8.372C43.7899 8.372 43.4019 8.472 43.0579 8.672C42.7139 8.872 42.4459 9.152 42.2539 9.512C42.0619 9.872 41.9659 10.284 41.9659 10.748V10.88C41.9659 11.36 42.0699 11.784 42.2779 12.152C42.4939 12.512 42.7899 12.796 43.1659 13.004C43.5499 13.204 43.9859 13.304 44.4739 13.304C44.8579 13.304 45.2139 13.236 45.5419 13.1C45.8779 12.964 46.1659 12.756 46.4059 12.476L46.8859 13.028C46.6059 13.364 46.2539 13.62 45.8299 13.796C45.4139 13.972 44.9539 14.06 44.4499 14.06ZM49.0161 14V5.096H49.8681V14H49.0161ZM54.9148 14.06C54.2588 14.06 53.6828 13.924 53.1868 13.652C52.6908 13.372 52.3028 12.992 52.0228 12.512C51.7428 12.024 51.6028 11.468 51.6028 10.844C51.6028 10.22 51.7348 9.668 51.9988 9.188C52.2708 8.708 52.6388 8.332 53.1028 8.06C53.5748 7.78 54.1028 7.64 54.6868 7.64C55.2788 7.64 55.8028 7.776 56.2588 8.048C56.7228 8.312 57.0868 8.688 57.3508 9.176C57.6148 9.656 57.7468 10.212 57.7468 10.844C57.7468 10.884 57.7428 10.928 57.7348 10.976C57.7348 11.016 57.7348 11.06 57.7348 11.108H52.2508V10.472H57.2788L56.9428 10.724C56.9428 10.268 56.8428 9.864 56.6428 9.512C56.4508 9.152 56.1868 8.872 55.8508 8.672C55.5148 8.472 55.1268 8.372 54.6868 8.372C54.2548 8.372 53.8668 8.472 53.5228 8.672C53.1788 8.872 52.9108 9.152 52.7188 9.512C52.5268 9.872 52.4308 10.284 52.4308 10.748V10.88C52.4308 11.36 52.5348 11.784 52.7428 12.152C52.9588 12.512 53.2548 12.796 53.6308 13.004C54.0148 13.204 54.4508 13.304 54.9388 13.304C55.3228 13.304 55.6788 13.236 56.0068 13.1C56.3428 12.964 56.6308 12.756 56.8708 12.476L57.3508 13.028C57.0708 13.364 56.7188 13.62 56.2948 13.796C55.8788 13.972 55.4188 14.06 54.9148 14.06ZM62.169 16.388C61.593 16.388 61.041 16.304 60.513 16.136C59.985 15.968 59.557 15.728 59.229 15.416L59.661 14.768C59.957 15.032 60.321 15.24 60.753 15.392C61.193 15.552 61.657 15.632 62.145 15.632C62.945 15.632 63.533 15.444 63.909 15.068C64.285 14.7 64.473 14.124 64.473 13.34V11.768L64.593 10.688L64.509 9.608V7.7H65.325V13.232C65.325 14.32 65.057 15.116 64.521 15.62C63.993 16.132 63.209 16.388 62.169 16.388ZM62.013 13.76C61.413 13.76 60.873 13.632 60.393 13.376C59.913 13.112 59.533 12.748 59.253 12.284C58.981 11.82 58.845 11.288 58.845 10.688C58.845 10.088 58.981 9.56 59.253 9.104C59.533 8.64 59.913 8.28 60.393 8.024C60.873 7.768 61.413 7.64 62.013 7.64C62.573 7.64 63.077 7.756 63.525 7.988C63.973 8.22 64.329 8.564 64.593 9.02C64.857 9.476 64.989 10.032 64.989 10.688C64.989 11.344 64.857 11.9 64.593 12.356C64.329 12.812 63.973 13.16 63.525 13.4C63.077 13.64 62.573 13.76 62.013 13.76ZM62.097 13.004C62.561 13.004 62.973 12.908 63.333 12.716C63.693 12.516 63.977 12.244 64.185 11.9C64.393 11.548 64.497 11.144 64.497 10.688C64.497 10.232 64.393 9.832 64.185 9.488C63.977 9.144 63.693 8.876 63.333 8.684C62.973 8.484 62.561 8.384 62.097 8.384C61.641 8.384 61.229 8.484 60.861 8.684C60.501 8.876 60.217 9.144 60.009 9.488C59.809 9.832 59.709 10.232 59.709 10.688C59.709 11.144 59.809 11.548 60.009 11.9C60.217 12.244 60.501 12.516 60.861 12.716C61.229 12.908 61.641 13.004 62.097 13.004ZM67.6958 14V7.7H68.5118V9.416L68.4278 9.116C68.6038 8.636 68.8998 8.272 69.3158 8.024C69.7318 7.768 70.2478 7.64 70.8638 7.64V8.468C70.8318 8.468 70.7998 8.468 70.7678 8.468C70.7358 8.46 70.7038 8.456 70.6718 8.456C70.0078 8.456 69.4878 8.66 69.1118 9.068C68.7358 9.468 68.5478 10.04 68.5478 10.784V14H67.6958ZM75.8977 14V12.608L75.8617 12.38V10.052C75.8617 9.516 75.7097 9.104 75.4057 8.816C75.1097 8.528 74.6657 8.384 74.0737 8.384C73.6657 8.384 73.2777 8.452 72.9097 8.588C72.5417 8.724 72.2297 8.904 71.9737 9.128L71.5897 8.492C71.9097 8.22 72.2937 8.012 72.7417 7.868C73.1897 7.716 73.6617 7.64 74.1577 7.64C74.9737 7.64 75.6017 7.844 76.0417 8.252C76.4897 8.652 76.7137 9.264 76.7137 10.088V14H75.8977ZM73.7257 14.06C73.2537 14.06 72.8417 13.984 72.4897 13.832C72.1457 13.672 71.8817 13.456 71.6977 13.184C71.5137 12.904 71.4217 12.584 71.4217 12.224C71.4217 11.896 71.4977 11.6 71.6497 11.336C71.8097 11.064 72.0657 10.848 72.4177 10.688C72.7777 10.52 73.2577 10.436 73.8577 10.436H76.0297V11.072H73.8817C73.2737 11.072 72.8497 11.18 72.6097 11.396C72.3777 11.612 72.2617 11.88 72.2617 12.2C72.2617 12.56 72.4017 12.848 72.6817 13.064C72.9617 13.28 73.3537 13.388 73.8577 13.388C74.3377 13.388 74.7497 13.28 75.0937 13.064C75.4457 12.84 75.7017 12.52 75.8617 12.104L76.0537 12.692C75.8937 13.108 75.6137 13.44 75.2137 13.688C74.8217 13.936 74.3257 14.06 73.7257 14.06ZM86.8998 7.64C87.4118 7.64 87.8558 7.74 88.2318 7.94C88.6158 8.132 88.9118 8.428 89.1198 8.828C89.3358 9.228 89.4438 9.732 89.4438 10.34V14H88.5918V10.424C88.5918 9.76 88.4318 9.26 88.1118 8.924C87.7998 8.58 87.3558 8.408 86.7798 8.408C86.3478 8.408 85.9718 8.5 85.6518 8.684C85.3398 8.86 85.0958 9.12 84.9198 9.464C84.7518 9.8 84.6678 10.208 84.6678 10.688V14H83.8158V10.424C83.8158 9.76 83.6558 9.26 83.3358 8.924C83.0158 8.58 82.5678 8.408 81.9918 8.408C81.5678 8.408 81.1958 8.5 80.8758 8.684C80.5558 8.86 80.3078 9.12 80.1318 9.464C79.9638 9.8 79.8798 10.208 79.8798 10.688V14H79.0278V7.7H79.8438V9.404L79.7118 9.104C79.9038 8.648 80.2118 8.292 80.6358 8.036C81.0678 7.772 81.5758 7.64 82.1598 7.64C82.7758 7.64 83.2998 7.796 83.7318 8.108C84.1638 8.412 84.4438 8.872 84.5718 9.488L84.2358 9.356C84.4198 8.844 84.7438 8.432 85.2078 8.12C85.6798 7.8 86.2438 7.64 86.8998 7.64Z" fill="#2D6A4F"/>
</svg>
